<?xml version="1.0" encoding="UTF-8"?>
<svg id="Layer_2" data-name="Layer 2" xmlns="http://www.w3.org/2000/svg" viewBox="0 0 230.98 189.29">
  <defs>
    <style>
      .cls-1 {
        fill: #fff;
        stroke-width: 0px;
      }
    </style>
  </defs>
  <g id="Layer_2-2" data-name="Layer 2">
    <g id="Layer_2-2" data-name="Layer 2-2">
      <g id="Layer_1-2" data-name="Layer 1-2">
        <path class="cls-1" d="M229.72,28.92c-1.94-2.21-5.33-2.36-7.44-.34l-65.88,59.65h10.73l61.9-51.89c2.31-1.82,2.61-5.21.69-7.42"/>
        <path class="cls-1" d="M188.73,96.55H4.9c-2.69,0-4.9,2.2-4.9,4.89v3.03c0,35.21,18.79,59.13,46.91,75.66,1.49.87,2.44,2.47,2.44,4.2v.06c0,2.7,2.18,4.9,4.9,4.9h85.07c1.36,0,2.6-.56,3.47-1.45.9-.89,1.43-2.09,1.43-3.45,0-1.75.95-3.34,2.47-4.23,28.1-16.5,46.94-40.47,46.94-75.69v-3.03c0-2.69-2.2-4.89-4.91-4.89"/>
        <path class="cls-1" d="M182.19,7.61c1.42-2.57.39-5.8-2.26-7.08-2.65-1.31-5.83-.1-6.97,2.57l-38.33,82.51-1.2,2.62h7.49L182.19,7.61"/>
      </g>
    </g>
  </g>
</svg>