<?xml version="1.0" encoding="UTF-8"?>
<svg id="Layer_2" data-name="Layer 2" xmlns="http://www.w3.org/2000/svg" xmlns:xlink="http://www.w3.org/1999/xlink" viewBox="0 0 837.97 188.63">
  <defs>
    <style>
      .cls-1 {
        clip-path: url(#clippath);
      }

      .cls-2 {
        fill: none;
      }

      .cls-2, .cls-3 {
        stroke-width: 0px;
      }

      .cls-3 {
        fill: #a41111;
      }
    </style>
    <clipPath id="clippath">
      <rect class="cls-2" y="95.78" width="193.95" height="92.85"/>
    </clipPath>
  </defs>
  <g id="Layer_1-2" data-name="Layer 1">
    <path class="cls-3" d="m229.79,28.92c-1.94-2.21-5.33-2.36-7.44-.34l-65.88,59.65h10.73l61.9-51.89c2.31-1.82,2.61-5.21.69-7.42"/>
    <g class="cls-1">
      <path class="cls-3" d="m58.69,159.78c-15.43-5.02-32.31-22.84-32.88-41.48v-2.13h8.98v2.03c.46,15.59,12.78,28.67,25.87,32.9l-1.97,8.68Zm130.11-63.23H4.97c-2.69,0-4.9,2.2-4.9,4.89v3.03c0,35.21,18.79,59.13,46.91,75.66,1.49.87,2.44,2.47,2.44,4.2v.06c0,2.7,2.18,4.9,4.9,4.9h85.07c1.36,0,2.6-.56,3.47-1.45.9-.89,1.43-2.09,1.43-3.45,0-1.75.95-3.34,2.47-4.23,28.1-16.5,46.94-40.47,46.94-75.69v-3.03c0-2.69-2.2-4.89-4.91-4.89"/>
    </g>
    <path class="cls-3" d="m182.26,7.61c1.42-2.57.39-5.8-2.26-7.08-2.65-1.31-5.83-.1-6.97,2.57l-38.33,82.51-1.2,2.62h7.49L182.26,7.61"/>
    <path class="cls-3" d="m292.39,186.36c1.76,0,3.14-1.26,3.14-2.89,1.76-23.35,5.15-94.91,5.15-98.17,0-1.51-.88-2.89-2.89-3.02l-24.1-1.51h-.25c-1.51,0-2.89,1.38-2.89,2.89l-1.51,51.35c0,1.01-.25,1.76-.76,1.76-.38,0-.75-.25-1.13-1.01-11.8-19.96-27.24-45.57-34.77-53.1-.63-.63-3.14-1.63-5.03-1.63h-.25l-24.48,1.13c-2.51.13-3.39,3.14-3.39,4.52v.25l5.4,96.29c.13,1.63,1.63,3.64,3.52,3.64h.38l23.47-3.02c3.14-.38,4.4-2.89,4.4-4.27v-.13l-6.4-53.48v-.5c0-1.01.25-1.51.88-1.51.38,0,.88.25,1.39,1,5.4,6.78,30.51,53.48,33.14,57.63.76,1.13,1.88,2.39,3.27,2.39l23.72,1.38Z"/>
    <path class="cls-3" d="m357.79,185.73c1.64,0,3.02-1.38,3.02-3.02v-98.05c0-1.63-1.38-3.01-3.02-3.01h-27.74c-1.63,0-3.01,1.38-3.01,3.01v98.05c0,1.64,1.38,3.02,3.01,3.02h27.74Z"/>
    <path class="cls-3" d="m416.42,186.74c1.26,0,2.39-1.13,2.51-2.52l1.26-25.98c4.77,1.38,9.92,2.14,15.19,2.14,26.11,0,41.93-16.2,41.93-39.42s-20.96-41.43-44.19-41.43c-4.9,0-9.92.88-14.94,2.51l-22.97-1.13h-.25c-1.38,0-2.51,1.13-2.51,2.39l-5.15,99.3c0,1.51,1.01,2.64,2.51,2.76l26.36,1.39h.25Zm6.4-79.84c2.01-.51,4.02-.76,5.78-.76,9.29,0,16.32,6.15,16.32,14.94,0,.88,0,14.31-13.81,14.31-3.39,0-6.91-.88-9.67-2.14l1.38-26.36Z"/>
    <path class="cls-3" d="m525.89,186.74c1.26,0,2.39-1.13,2.51-2.52l1.26-25.98c4.77,1.38,9.92,2.14,15.19,2.14,26.11,0,41.93-16.2,41.93-39.42s-20.96-41.43-44.19-41.43c-4.9,0-9.92.88-14.94,2.51l-22.97-1.13h-.25c-1.38,0-2.51,1.13-2.51,2.39l-5.15,99.3c0,1.51,1.01,2.64,2.51,2.76l26.36,1.39h.25Zm6.4-79.84c2.01-.51,4.02-.76,5.78-.76,9.29,0,16.32,6.15,16.32,14.94,0,.88,0,14.31-13.81,14.31-3.39,0-6.91-.88-9.67-2.14l1.38-26.36Z"/>
    <path class="cls-3" d="m716.95,133.38c0-20.96-15.06-54.1-55.23-54.1-22.1,0-45.95,10.54-54.11,34.02-2.64,7.78-3.89,15.19-3.89,22.09,0,31.26,25.11,52.35,53.73,52.35,25.48,0,59.51-19.83,59.51-54.36Zm-55.23,26.61c-12.93,0-24.98-10.79-24.98-26.74,0-11.42,6.28-26.99,24.48-26.99s24.1,14.56,24.1,26.99c0,14.19-8.66,26.74-23.6,26.74Z"/>
    <path class="cls-3" d="m829.69,186.36c1.76,0,3.14-1.26,3.14-2.89,1.76-23.35,5.15-94.91,5.15-98.17,0-1.51-.88-2.89-2.89-3.02l-24.1-1.51h-.25c-1.51,0-2.89,1.38-2.89,2.89l-1.51,51.35c0,1.01-.25,1.76-.76,1.76-.38,0-.75-.25-1.13-1.01-11.8-19.96-27.24-45.57-34.77-53.1-.63-.63-3.14-1.63-5.03-1.63h-.25l-24.48,1.13c-2.51.13-3.39,3.14-3.39,4.52v.25l5.4,96.29c.13,1.63,1.63,3.64,3.52,3.64h.38l23.47-3.02c3.14-.38,4.4-2.89,4.4-4.27v-.13l-6.4-53.48v-.5c0-1.01.25-1.51.88-1.51.38,0,.88.25,1.39,1,5.4,6.78,30.51,53.48,33.14,57.63.76,1.13,1.88,2.39,3.27,2.39l23.72,1.38Z"/>
  </g>
</svg>