<?xml version="1.0" encoding="UTF-8"?>
<svg id="Layer_2" data-name="Layer 2" xmlns="http://www.w3.org/2000/svg" xmlns:xlink="http://www.w3.org/1999/xlink" viewBox="0 0 478.88 409.37">
  <defs>
    <style>
      .cls-1 {
        clip-path: url(#clippath);
      }

      .cls-2 {
        fill: none;
      }

      .cls-2, .cls-3, .cls-4, .cls-5 {
        stroke-width: 0px;
      }

      .cls-6 {
        clip-path: url(#clippath-1);
      }

      .cls-7 {
        clip-path: url(#clippath-3);
      }

      .cls-8 {
        clip-path: url(#clippath-2);
      }

      .cls-3 {
        fill: #a41111;
      }

      .cls-4 {
        fill: #a51515;
      }

      .cls-5 {
        fill: #fff6e4;
      }
    </style>
    <clipPath id="clippath">
      <rect class="cls-2" x="25.66" width="416.78" height="409.37"/>
    </clipPath>
    <clipPath id="clippath-1">
      <rect class="cls-2" x="257.35" y="56.5" width="34.31" height="29.29"/>
    </clipPath>
    <clipPath id="clippath-2">
      <rect class="cls-2" x="188.04" y="88.46" width="86.62" height="41.9"/>
    </clipPath>
    <clipPath id="clippath-3">
      <rect class="cls-2" x="246.7" y="45.3" width="22.64" height="40.49"/>
    </clipPath>
  </defs>
  <g id="Layer_1-2" data-name="Layer 1">
    <g class="cls-1">
      <path class="cls-5" d="m229.89.05c301.73,0,261.44,409.19,0,409.19S-52.57.05,229.89.05"/>
    </g>
    <path class="cls-4" d="m71.2,154.13h-18.73l.19,50.33v24.97l-.19,4.69-3.91-7.81c-1.36-2.73-2.73-5.26-4.09-7.99-1.17-2.54-2.54-5.27-3.71-7.8-.58-1.37-1.17-2.54-1.75-3.9l-.98-2.15-.97-2.15-.98-1.95-.97-1.95c-.59-1.36-1.37-2.73-1.95-4.09l-4.1-7.8c-2.73-5.27-5.46-10.34-8.19-16.58l-17.94,3.31-.59,11.51-.58,11.7-.39,11.71-.39,6.43c-.2,8-.39,15.8-.59,23.6-.39,15.8-.39,31.41-.39,47.21h18.73c0-15.6,0-31.21.39-46.82.2-7.61.39-15.41.59-23.21l.39-5.26v.19l.78,1.76.98,2.14c.58,1.37,1.17,2.73,1.95,4.29,1.17,2.73,2.53,5.46,3.9,8.19,1.36,2.73,2.73,5.47,4.09,8.2l4.1,7.99c5.46,10.73,10.73,21.26,15.99,34.33l18.14-2.93c.19-3.9.39-7.99.58-11.9l.2-6.05.19-6.24c0-4.1.2-8.39.2-12.48l.19-8v-25.16l-.19-50.33Z"/>
    <path class="cls-4" d="m119.96,175h12.29v-18.73c-14.04,0-28.68-.59-43.7.58l1.37,18.53c3.7-.19,7.6-.39,11.31-.39l-1.17,94.61c-3.9.2-7.8.39-11.51.59l1.37,18.73c13.65-1.17,27.7-.59,42.33-.39v-18.92h-13.46l1.17-94.61Z"/>
    <path class="cls-4" d="m205.99,189.04c-.2-1.36-.59-2.92-.98-4.29-.39-1.36-.58-2.92-1.17-4.29-.39-1.36-.97-2.92-1.56-4.29-.78-1.36-1.36-2.73-2.14-4.1-1.76-2.73-3.52-5.26-5.66-7.41-2.15-2.14-4.49-4.29-7.02-6.04-2.73-1.76-5.46-3.12-8.39-4.29-5.26-1.95-11.12-2.73-16.77-1.95l-11.7-.39c-1.17,46.23-1.37,92.46-.59,138.7l18.73-.2c-.19-14.24-.39-28.29-.39-42.33,4.69-1.76,9.37-3.71,13.85-6.44,4.88-2.73,9.56-6.43,13.46-10.92,1.95-2.34,3.9-4.88,5.27-7.8.39-.59.78-1.37,1.17-2.15l.39-.97.39-1.17.78-2.15.78-2.14c1.36-5.46,2.14-11.12,2.14-16.78,0-2.92-.19-5.65-.58-8.58Zm-19.7,20.29l-.39,1.56-.39,1.17-.2.58-.39.39c-.19.39-.39.78-.58,1.17-.78,1.56-1.76,2.93-2.73,4.29-3.32,3.71-8,6.83-13.27,9.36,0-18.92.2-38.04.59-56.96,1.17.2,2.34.59,3.51.98,1.56.58,3.12,1.36,4.49,2.34,1.36.98,2.73,2.15,3.9,3.32s2.34,2.73,3.12,4.09l1.17,2.34c.39.78.78,1.56.97,2.34.39.98.59,1.76.78,2.73.2.98.39,1.76.59,2.73.19,1.95.39,3.9.39,5.85,0,4.1-.59,8-1.56,11.71Z"/>
    <path class="cls-4" d="m280.5,189.04c-.2-1.36-.59-2.92-.98-4.29-.39-1.36-.58-2.92-1.17-4.29-.39-1.36-.97-2.92-1.56-4.29-.78-1.36-1.36-2.73-2.14-4.1-1.76-2.73-3.52-5.26-5.66-7.41-2.15-2.14-4.49-4.29-7.02-6.04-2.73-1.76-5.46-3.12-8.39-4.29-5.26-1.95-11.12-2.73-16.77-1.95l-11.7-.39c-1.17,46.23-1.37,92.46-.59,138.7l18.73-.2c-.19-14.24-.39-28.29-.39-42.33,4.69-1.76,9.37-3.71,13.85-6.44,4.88-2.73,9.56-6.43,13.46-10.92,1.95-2.34,3.9-4.88,5.27-7.8.39-.59.78-1.37,1.17-2.15l.39-.97.39-1.17.78-2.15.78-2.14c1.36-5.46,2.14-11.12,2.14-16.78,0-2.92-.19-5.65-.58-8.58Zm-19.7,20.29l-.39,1.56-.39,1.17-.2.58-.39.39c-.19.39-.39.78-.58,1.17-.78,1.56-1.76,2.93-2.73,4.29-3.32,3.71-8,6.83-13.27,9.36,0-18.92.2-38.04.59-56.96,1.17.2,2.34.59,3.51.98,1.56.58,3.12,1.36,4.49,2.34,1.36.98,2.73,2.15,3.9,3.32s2.34,2.73,3.12,4.09l1.17,2.34c.39.78.78,1.56.97,2.34.39.98.59,1.76.78,2.73.2.98.39,1.76.59,2.73.19,1.95.39,3.9.39,5.85,0,4.1-.59,8-1.56,11.71Z"/>
    <path class="cls-4" d="m388.96,195.87c-.39-1.76-.97-3.32-1.56-5.07l-.97-2.54-.98-2.53c-.78-1.56-1.56-3.32-2.34-4.88-.97-1.75-1.95-3.31-2.92-5.07-2.15-3.12-4.88-6.24-7.81-8.97-3.12-2.73-6.82-5.07-10.73-6.83-1.17-.39-2.15-.78-3.12-1.17-1.17-.19-2.15-.58-3.32-.78-1.95-.39-3.9-.58-5.65-.78-3.91-.39-7.81-.19-11.71.39-3.9.39-7.8,1.37-11.7,3.12-3.9,1.76-7.8,4.29-10.92,7.8l13.85,12.49c1.17-1.17,2.73-2.15,4.68-3.12,1.95-.78,4.09-1.56,6.63-1.76,2.53-.39,5.07-.39,7.6-.19,1.18,0,2.35.19,3.52.39.58.19.97.39,1.56.39.39.19.97.39,1.36.58,1.95.78,3.71,1.95,5.46,3.32,1.56,1.56,3.12,3.51,4.68,5.65.59.98,1.37,2.15,1.95,3.12.59,1.17,1.17,2.34,1.56,3.71l.98,1.95.58,1.95c.59,1.36.98,2.73,1.37,4.09,3.12,10.93,3.7,22.63,1.56,33.75-.98,5.46-2.54,10.92-4.88,15.99s-5.26,9.75-8.77,13.26-7.41,5.85-11.51,6.63-8.78,0-12.87-1.95c-2.15-.97-4.29-2.34-6.05-3.9-1.75-1.56-3.51-3.31-4.87-5.46-2.93-4.1-5.27-8.97-6.64-14.24-2.92-10.73-2.73-22.43-.78-33.94.98-5.85,2.54-11.51,4.49-16.58,2.15-5.07,4.88-9.75,8.39-13.65l-13.85-12.49c-5.27,5.66-8.97,12.29-11.7,18.92-2.93,6.83-4.49,13.85-5.66,20.48-1.17,6.83-1.95,13.85-1.75,20.87,0,7.02.97,14.24,2.73,21.26,1.95,7.02,5.07,14.04,9.56,20.29,2.15,3.12,4.88,6.24,7.8,8.78,3.12,2.53,6.44,4.87,10.15,6.63,3.7,1.75,7.6,2.92,11.9,3.51,4.1.78,8.39.58,12.68-.2,4.29-.78,8.19-2.34,11.9-4.48,3.51-1.95,6.63-4.68,9.36-7.41,5.46-5.46,9.56-11.9,12.48-18.53,2.93-6.63,5.07-13.46,6.44-20.48,2.53-14.04,1.95-28.48-2.15-42.33Z"/>
    <path class="cls-4" d="m478.68,154.13h-18.73l.19,50.33v24.97l-.19,4.69-3.91-7.81c-1.36-2.73-2.73-5.26-4.09-7.99-1.17-2.54-2.54-5.27-3.71-7.8-.58-1.37-1.17-2.54-1.75-3.9l-.98-2.15-.97-2.15-.98-1.95-.97-1.95c-.59-1.36-1.37-2.73-1.95-4.09l-4.1-7.8c-2.73-5.27-5.46-10.34-8.19-16.58l-17.94,3.31-.59,11.51-.58,11.7-.39,11.71-.39,6.43c-.2,8-.39,15.8-.59,23.6-.39,15.8-.39,31.41-.39,47.21h18.73c0-15.6,0-31.21.39-46.82.2-7.61.39-15.41.59-23.21l.39-5.26v.19l.78,1.76.98,2.14c.58,1.37,1.17,2.73,1.95,4.29,1.17,2.73,2.53,5.46,3.9,8.19,1.36,2.73,2.73,5.47,4.09,8.2l4.1,7.99c5.46,10.73,10.73,21.26,15.99,34.33l18.14-2.93c.19-3.9.39-7.99.58-11.9l.2-6.05.19-6.24c0-4.1.2-8.39.2-12.48l.19-8v-25.16l-.19-50.33Z"/>
    <path class="cls-4" d="m169.29,326.11c-.04-.65-.12-1.34-.24-2.06-.08-.73-.24-1.5-.57-2.31-.16-.36-.36-.77-.61-1.18-.08-.16-.24-.36-.36-.53-.08-.12-.16-.2-.24-.32-.08-.08-.16-.17-.28-.24-.36-.36-.81-.69-1.34-.93-.53-.24-1.13-.41-1.78-.36-.53,0-1.13.12-1.66.36-.48.24-.93.57-1.3.93-.16.2-.32.36-.48.57-.12-.16-.29-.36-.45-.53-.36-.33-.77-.65-1.3-.89-.45-.2-.97-.28-1.5-.28-.24,0-.53,0-.77.08-.2.04-.45.08-.65.17-.36.12-.65.28-.93.48,0-.57,0-1.09.04-1.66l-3.89-.16c-.12,2.79,0,5.54.12,8.22.04,1.42.12,2.83.16,4.21-.04.16-.04.32-.04.49h.04v3.24l3.89.12c.04-1.26,0-2.51,0-3.77.12-1.7.41-3.44.81-5.1.08-.24.12-.49.2-.69.04-.24.12-.44.16-.61.12-.36.29-.64.41-.85.08-.08.16-.16.2-.16.04-.04.12-.08.16-.12h.08l.04.04s.12.12.17.24c.16.24.28.61.36,1.01.08.44.12.93.16,1.41.04.53.04,1.06.08,1.62l.08,1.7c.04.53.08,1.09.08,1.62.04.45.04.85.04,1.25.04.73.04,1.42.08,2.07l3.89-.08c-.04-.69-.04-1.38-.08-2.06v-1.5c0-.61.04-1.13.08-1.7,0-.29.04-.53.08-.81,0-.12.04-.29.04-.41l.08-.41c.08-.61.2-1.13.33-1.66.12-.53.28-1.01.44-1.46.16-.41.41-.73.53-.89.08-.08.17-.12.2-.16h.2s.12.12.24.2l.04.04s.04.04.08.08c.04.08.08.16.17.24.08.16.16.36.24.57.2.41.29.89.36,1.42.12.57.16,1.13.2,1.78.2,2.47.16,4.9-.04,7.38l3.85.36c.29-2.67.29-5.35.08-8.02Z"/>
    <path class="cls-4" d="m182.56,329.03v-.17c-.04-.97-.08-1.94-.12-2.91-.04-.53-.08-1.06-.12-1.54-.04-.53-.08-1.06-.12-1.62-.08-.57-.2-1.17-.41-1.82-.2-.61-.49-1.25-.93-1.86-.2-.33-.45-.61-.77-.89-.29-.28-.65-.57-1.06-.76-.73-.37-1.62-.57-2.51-.49-.89.08-1.74.45-2.43,1.01-.32.24-.61.57-.85.89l-.08.12-.08.12-.12.16c-.08.12-.12.2-.24.36-.16.24-.36.61-.48,1.05-.16.45-.24.85-.24,1.18-.08.65-.08,1.13-.08,1.66l3.89.08c0-.48,0-.97.04-1.34.04-.16.04-.28.04-.32.04-.04.08-.12.16-.29l.16-.24.12-.17.04-.04.04-.04c.04-.08.08-.12.16-.2.04-.04.08-.04.16-.08.04,0,.08-.04.16-.04.12,0,.24,0,.41.08.08.04.24.16.41.41.12.2.29.48.36.81.12.36.2.73.24,1.18.08.32.08.73.12,1.13-.44-.08-.89-.12-1.34-.08-1.25.08-2.43.53-3.4,1.38-.24.2-.48.44-.69.73-.2.24-.36.53-.53.81-.29.57-.49,1.21-.57,1.86-.04.64,0,1.34.2,2.02.24.69.6,1.26,1.05,1.78.89.97,2.11,1.54,3.4,1.66.16.04.32.04.53.04h.45c.29-.04.57-.08.85-.16.08,0,.2-.04.28-.04,0,.2,0,.41-.04.61l3.89.12c.08-2.06.08-4.09.04-6.15Zm-4.42,1.46c-.16.08-.32.16-.57.24-.12,0-.24,0-.36.04h-.29c-.32-.04-.69-.24-.89-.44-.12-.12-.16-.24-.2-.36-.04-.12-.08-.24-.04-.41.04-.33.2-.69.45-.85.28-.24.69-.44,1.09-.44.24-.04.41,0,.57.04.16.04.32.12.41.2.16.12.32.36.36.61v.81c-.04.08-.08.16-.16.28-.08.08-.2.2-.36.29Zm-4.49-17.21c.04.12.08.24.12.32.16.48.41.89.77,1.25.36.36.81.65,1.25.77.93.32,1.83.29,2.67,0,.41-.16.81-.36,1.18-.69.36-.29.69-.65.89-1.09.24-.45.36-.94.41-1.42.04-.45-.04-1.01-.24-1.46-.2-.49-.48-.89-.85-1.22-.36-.32-.77-.57-1.18-.73-.85-.32-1.78-.36-2.72-.04-.44.12-.85.41-1.21.73-.36.33-.65.69-.85,1.13-.2.41-.32.85-.36,1.34,0,.24,0,.49.04.73.04.12.04.24.08.37Zm2.67-.94c0-.08.04-.2.08-.32.12-.2.29-.36.48-.45.2-.04.53-.04.77.04.12.04.24.12.33.2.08.08.12.12.16.2,0,.08.04.12,0,.24,0,.08-.04.2-.08.28-.08.17-.24.36-.53.45-.28.12-.61.12-.81.04-.08-.04-.16-.08-.24-.16-.04-.04-.08-.12-.12-.2,0-.04,0-.08-.04-.08v-.24Z"/>
    <path class="cls-4" d="m189.89,312.58l-3.89-.04.08,23.49,3.89-.04-.08-23.41Z"/>
    <path class="cls-4" d="m204.79,320.15c-1.34-.04-2.63-.04-3.97-.04v-2.23c0-1.98-.04-3.97.04-5.83l-3.89-.2c-.08,2.06-.04,4.05-.04,6.03v2.23h-3.65l-.04,3.89c1.22.04,2.47,0,3.73,0l.08,5.75c0,1.94,0,3.93-.08,5.83l3.89.16c.08-2.06.08-4.01.08-6.03l-.08-5.71c1.3,0,2.55,0,3.85.04l.08-3.89Z"/>
    <path class="cls-4" d="m212.23,323.23l-3.89.04c.04,3.72.2,7.45.45,11.18l3.89-.24c-.24-3.68-.41-7.33-.45-10.98Zm-1.94-2.02c1.18-.04,2.14-1.06,2.11-2.27-.04-1.18-1.06-2.11-2.27-2.11-1.18.04-2.11,1.05-2.07,2.27,0,1.18,1.01,2.14,2.23,2.11Z"/>
    <path class="cls-4" d="m225.35,311.85c-.24,3.24-.44,6.44-.64,9.68-.97-.41-2.07-.57-3.08-.45-.77.08-1.54.29-2.27.65-.69.36-1.38.85-1.9,1.5l-.16.29c-.08.08-.17.16-.2.24-.08.16-.2.33-.29.49-.08.16-.16.32-.24.53l-.12.24-.08.28c-.24.69-.37,1.42-.37,2.19-.04.77.08,1.54.37,2.27.04.2.12.36.2.53.08.2.17.36.29.57.08.16.2.32.32.48.08.16.2.29.33.45.48.57,1.01,1.05,1.66,1.46.61.41,1.34.73,2.11.89.41.08.81.16,1.21.16.2,0,.41,0,.61-.04.08,0,.2,0,.32-.04.12,0,.24-.04.33-.04.16-.04.28-.08.41-.12,0,.32-.04.65-.04.97l3.89.12c.12-3.81.29-7.65.53-11.5.2-3.85.44-7.66.73-11.51l-3.89-.28Zm-1.05,16.97c0,.08-.04.28-.16.53-.12.24-.33.48-.57.69-.24.16-.49.29-.69.32h-.04s-.04.04-.08.04h-.2c-.16,0-.29-.04-.45-.08-.57-.12-1.18-.49-1.62-1.06-.08-.04-.12-.12-.16-.2-.04-.04-.08-.12-.12-.16-.04-.08-.08-.12-.12-.2,0-.08-.04-.16-.08-.2-.08-.32-.12-.64-.12-.97s.04-.64.16-.97l.04-.12.04-.12c.04-.08.08-.16.12-.24.04-.08.08-.12.12-.2,0-.04.04-.04.04-.08l.08-.08c.28-.36.89-.69,1.5-.73.64-.08,1.25.08,1.74.44.2.17.36.33.48.57.08.2.16.44.2.73-.04.69-.04,1.37-.08,2.11h-.04Z"/>
    <path class="cls-4" d="m242.48,330.89l-.04-.2-.08-.33c-.08-.28-.16-.57-.32-.81-.12-.24-.29-.45-.45-.69-.08-.08-.16-.2-.24-.28l-.12-.12s-.08-.08-.12-.12c-.36-.36-.69-.57-1.01-.81-.33-.2-.65-.36-.93-.53l-.81-.44c-.24-.12-.45-.24-.57-.37l-.12-.08-.12-.08c-.08-.08-.16-.16-.24-.2-.12-.16-.24-.32-.36-.44-.12-.16-.2-.33-.24-.49-.08-.12-.12-.28-.16-.44,0-.12-.04-.29,0-.41,0-.16.04-.33.08-.45.08-.24.2-.41.36-.57.16-.12.36-.16.61-.2.2,0,.45.04.69.2.04.04.08.04.08.04.04.04.08.04.08.08h.04s.04.04.04.08c.08.08.16.2.24.36.16.32.32.77.36,1.13l3.85-.57c-.12-.81-.36-1.58-.73-2.35-.2-.4-.44-.76-.81-1.17-.08-.08-.16-.16-.24-.29-.12-.08-.2-.16-.32-.24-.12-.12-.2-.16-.29-.24l-.32-.2c-.81-.49-1.78-.77-2.79-.73-1.01.04-2.03.36-2.83,1.01-.81.61-1.42,1.5-1.7,2.43-.17.44-.24.89-.29,1.37-.04.45,0,.93.08,1.38.08.48.2.89.4,1.34.17.41.37.77.61,1.13.29.32.53.65.81.97.16.12.32.28.48.41l.2.2.29.2c.36.24.69.4.97.57l.81.44c.29.16.49.29.69.41.16.12.32.24.45.32,0,0,0,.04.04.04v.04s.04.04.08.04v.04l.04.04s0,.04.04.08v.08l.04.04v.33s-.04.08-.08.16c-.04.08-.2.2-.41.24-.12.04-.24.08-.36.08s-.24-.04-.36-.04c-.24-.08-.45-.2-.65-.41-.16-.2-.32-.53-.45-.89l-3.72,1.18c.24.77.65,1.62,1.3,2.31.65.73,1.5,1.25,2.47,1.54.45.12.93.2,1.46.2.48,0,.97-.08,1.46-.24.93-.29,1.86-.89,2.51-1.83.28-.44.53-.97.64-1.53.08-.53.12-1.06.04-1.58l-.04-.16Z"/>
    <path class="cls-4" d="m258.27,332.71c-1.83-1.5-3.69-2.95-5.59-4.33.73-.49,1.46-1.09,2.06-1.7,1.42-1.46,2.51-3.2,3.16-5.1l-3.68-1.3c-.65,1.9-1.95,3.64-3.6,4.82l.36-12.56-3.89-.16-.69,23.41,3.89.08.12-4.33c1.82,1.34,3.65,2.72,5.39,4.17l2.47-3Z"/>
    <path class="cls-4" d="m271.47,328.98v-.16c-.04-.97-.08-1.95-.12-2.92-.04-.53-.08-1.01-.12-1.54-.04-.53-.08-1.05-.12-1.62-.08-.57-.2-1.18-.41-1.83-.2-.61-.49-1.25-.93-1.86-.2-.32-.45-.61-.77-.89-.29-.29-.65-.53-1.06-.73-.73-.37-1.62-.57-2.51-.49-.89.04-1.74.41-2.43.97-.32.28-.61.57-.85.93l-.08.12-.08.08-.12.16c-.08.12-.12.24-.24.36-.16.29-.36.65-.48,1.06-.16.44-.24.85-.24,1.17-.08.65-.08,1.18-.08,1.66l3.89.12c0-.48,0-1.01.04-1.38.04-.16.04-.24.04-.28.04-.04.08-.12.16-.29l.16-.28.12-.16.04-.04.04-.04c.04-.08.08-.12.16-.16.04-.04.08-.08.16-.12.04,0,.08-.04.16-.04.12,0,.24.04.41.12.08.04.24.16.41.36.12.2.29.49.36.85.12.32.2.69.24,1.13.08.36.08.73.12,1.13-.44-.08-.89-.12-1.34-.08-1.25.12-2.39.53-3.4,1.38-.24.24-.48.48-.69.73-.2.24-.36.53-.53.81-.29.57-.49,1.21-.57,1.86-.04.65,0,1.38.2,2.02.24.69.6,1.3,1.05,1.78.89.97,2.11,1.54,3.4,1.7h.97c.29-.04.57-.08.85-.12.08-.04.2-.04.28-.08,0,.2,0,.41-.04.61l3.89.12c.08-2.06.08-4.09.04-6.15Zm-4.42,1.46c-.16.12-.32.2-.57.24-.12,0-.24.04-.36.04h-.29c-.32-.04-.69-.2-.89-.45-.12-.12-.16-.24-.2-.32-.04-.12-.08-.29-.04-.45.04-.29.2-.65.45-.85.28-.24.69-.4,1.09-.44.24,0,.41,0,.57.04.16.04.32.12.41.2.16.12.32.41.36.61v.81c-.04.12-.08.2-.16.29-.08.12-.2.2-.36.28Z"/>
    <path class="cls-4" d="m284.79,330.89l-.04-.2-.08-.33c-.08-.28-.16-.57-.32-.81-.12-.24-.29-.45-.45-.69-.08-.08-.16-.2-.24-.28l-.12-.12s-.08-.08-.12-.12c-.36-.36-.69-.57-1.01-.81-.33-.2-.65-.36-.93-.53l-.81-.44c-.24-.12-.45-.24-.57-.37l-.12-.08-.12-.08c-.08-.08-.16-.16-.24-.2-.12-.16-.24-.32-.36-.44-.12-.16-.2-.33-.24-.49-.08-.12-.12-.28-.16-.44,0-.12-.04-.29,0-.41,0-.16.04-.33.08-.45.08-.24.2-.41.36-.57.16-.12.36-.16.61-.2.2,0,.45.04.69.2.04.04.08.04.08.04.04.04.08.04.08.08h.04s.04.04.04.08c.08.08.16.2.24.36.16.32.32.77.36,1.13l3.85-.57c-.12-.81-.36-1.58-.73-2.35-.2-.4-.44-.76-.81-1.17-.08-.08-.16-.16-.24-.29-.12-.08-.2-.16-.32-.24-.12-.12-.2-.16-.29-.24l-.32-.2c-.81-.49-1.78-.77-2.79-.73-1.01.04-2.03.36-2.83,1.01-.81.61-1.42,1.5-1.7,2.43-.17.44-.24.89-.29,1.37-.04.45,0,.93.08,1.38.08.48.2.89.4,1.34.17.41.37.77.61,1.13.29.32.53.65.81.97.16.12.32.28.48.41l.2.2.29.2c.36.24.69.4.97.57l.81.44c.29.16.49.29.69.41.16.12.32.24.45.32,0,0,0,.04.04.04v.04s.04.04.08.04v.04l.04.04s0,.04.04.08v.08l.04.04v.33s-.04.08-.08.16c-.04.08-.2.2-.41.24-.12.04-.24.08-.36.08s-.24-.04-.36-.04c-.24-.08-.45-.2-.65-.41-.16-.2-.32-.53-.45-.89l-3.72,1.18c.24.77.65,1.62,1.3,2.31.65.73,1.5,1.25,2.47,1.54.45.12.93.2,1.46.2.48,0,.97-.08,1.46-.24.93-.29,1.86-.89,2.51-1.83.28-.44.53-.97.64-1.53.08-.53.12-1.06.04-1.58l-.04-.16Z"/>
    <path class="cls-4" d="m298.55,330.89l-.04-.2-.08-.33c-.08-.28-.16-.57-.32-.81-.12-.24-.29-.45-.45-.69-.08-.08-.16-.2-.24-.28l-.12-.12s-.08-.08-.12-.12c-.36-.36-.69-.57-1.01-.81-.33-.2-.65-.36-.93-.53l-.81-.44c-.24-.12-.45-.24-.57-.37l-.12-.08-.12-.08c-.08-.08-.16-.16-.24-.2-.12-.16-.24-.32-.36-.44-.12-.16-.2-.33-.24-.49-.08-.12-.12-.28-.16-.44,0-.12-.04-.29,0-.41,0-.16.04-.33.08-.45.08-.24.2-.41.36-.57.16-.12.36-.16.61-.2.2,0,.45.04.69.2.04.04.08.04.08.04.04.04.08.04.08.08h.04s.04.04.04.08c.08.08.16.2.24.36.16.32.32.77.36,1.13l3.85-.57c-.12-.81-.36-1.58-.73-2.35-.2-.4-.44-.76-.81-1.17-.08-.08-.16-.16-.24-.29-.12-.08-.2-.16-.32-.24-.12-.12-.2-.16-.29-.24l-.32-.2c-.81-.49-1.78-.77-2.79-.73-1.01.04-2.03.36-2.83,1.01-.81.61-1.42,1.5-1.7,2.43-.17.44-.24.89-.29,1.37-.04.45,0,.93.08,1.38.08.48.2.89.4,1.34.17.41.37.77.61,1.13.29.32.53.65.81.97.16.12.32.28.48.41l.2.2.29.2c.36.24.69.4.97.57l.81.44c.29.16.49.29.69.41.16.12.32.24.45.32,0,0,0,.04.04.04v.04s.04.04.08.04v.04l.04.04s0,.04.04.08v.08l.04.04v.33s-.04.08-.08.16c-.04.08-.2.2-.41.24-.12.04-.24.08-.36.08s-.24-.04-.36-.04c-.24-.08-.45-.2-.65-.41-.16-.2-.32-.53-.45-.89l-3.72,1.18c.24.77.65,1.62,1.3,2.31.65.73,1.5,1.25,2.47,1.54.45.12.93.2,1.46.2.48,0,.97-.08,1.46-.24.93-.29,1.86-.89,2.51-1.83.28-.44.53-.97.64-1.53.08-.53.12-1.06.04-1.58l-.04-.16Z"/>
    <path class="cls-4" d="m310.94,330.16c-.04.16-.12.32-.24.48-.08.12-.2.24-.29.36-.12.08-.2.16-.28.16,0,.04-.04.04-.08.04l-.08.04-.12.04c-.08,0-.12.04-.16.04l-.16.04c-.16.04-.36.04-.53.04-.36,0-.73-.08-1.06-.29-.36-.16-.69-.44-.93-.77-.28-.28-.48-.69-.61-1.05-.04-.08-.04-.16-.04-.24l-.04-.04v-.12s0-.12-.04-.2v-.24c1.66-.12,3.32-.24,4.98-.32l3.89-.12c0-.41-.04-.77-.08-1.18-.04-.36-.12-.73-.16-1.09-.17-.69-.33-1.42-.57-2.19-.12-.36-.29-.77-.49-1.21-.08-.08-.12-.2-.2-.33l-.12-.16-.04-.08-.04-.08c-.16-.16-.28-.36-.44-.53-.29-.36-.65-.69-1.1-.97-.44-.32-.93-.57-1.46-.69-1.09-.33-2.11-.24-3.04.04-.48.12-.93.33-1.38.57-.44.29-.81.57-1.13.94-.69.69-1.18,1.46-1.5,2.23-.32.73-.61,1.46-.77,2.27-.16.77-.24,1.58-.24,2.35-.04.41,0,.81.04,1.22,0,.12,0,.2.04.29v.16l.04.2c.04.24.08.48.16.69.28.93.73,1.74,1.34,2.43.57.69,1.3,1.3,2.11,1.74.85.41,1.82.69,2.79.69.45,0,.93-.04,1.42-.12l.32-.08c.12-.04.2-.08.32-.08l.33-.12.16-.08s.12,0,.16-.04c.53-.24,1.01-.57,1.38-.89.4-.36.73-.73.97-1.13.24-.45.49-.85.65-1.3.16-.49.29-.97.29-1.54l-3.85-.2c-.04.08-.04.28-.12.45Zm-3.32-6.36c.12-.12.28-.24.41-.32.16-.08.32-.16.48-.2.33-.08.69-.08.89-.04.2.08.4.2.69.48.08.08.12.17.2.24l.04.04v.08s.04.04.08.08c.08.16.16.36.24.65v.04c-1.25.04-2.55.12-3.81.2.04-.04.04-.12.08-.2.2-.44.44-.81.69-1.05Z"/>
    <path class="cls-4" d="m327.91,319.42c-1.14.04-2.23.29-3.32.69-.53.2-1.09.49-1.58.77-.24.17-.44.29-.64.45-.04-.57-.04-1.18-.04-1.78l-3.89.08c.08,5.06.29,10.16.53,15.23l3.89-.2c-.08-2.11-.2-4.21-.28-6.28h.04c0-.69.12-1.34.41-1.9.29-.61.69-1.18,1.22-1.66l.2-.16.2-.17c.12-.08.28-.2.41-.28.32-.16.6-.32.93-.45.69-.28,1.41-.41,2.14-.44l-.2-3.89Z"/>
    <g class="cls-6">
      <path class="cls-3" d="m290.15,58.5c-.86-.98-2.37-1.05-3.31-.15l-29.27,26.5h4.77l27.51-23.06c1.03-.81,1.17-2.31.31-3.29"/>
    </g>
    <g class="cls-8">
      <path class="cls-3" d="m214.12,116.64c-6.86-2.23-14.36-10.15-14.61-18.43v-.95h3.99v.9c.21,6.93,5.68,12.74,11.5,14.62l-.87,3.85Zm57.81-28.1h-81.68c-1.2,0-2.18.98-2.18,2.17v1.35c0,15.65,8.35,26.27,20.85,33.62.66.38,1.08,1.09,1.08,1.87v.02c0,1.2.97,2.18,2.18,2.18h37.8c.61,0,1.16-.25,1.54-.64.4-.4.63-.93.63-1.54,0-.78.42-1.48,1.1-1.88,12.49-7.33,20.86-17.99,20.86-33.63v-1.35c0-1.19-.98-2.17-2.18-2.17"/>
    </g>
    <g class="cls-7">
      <path class="cls-3" d="m269.03,49.03c.63-1.14.17-2.57-1-3.15-1.18-.58-2.59-.05-3.1,1.14l-17.03,36.66-.54,1.16h3.33l18.34-35.82"/>
    </g>
  </g>
</svg>