<?xml version="1.0" encoding="UTF-8"?>
<svg id="Layer_2" data-name="Layer 2" xmlns="http://www.w3.org/2000/svg" viewBox="0 0 606.56 175.68">
  <defs>
    <style>
      .cls-1 {
        fill: #fff;
        stroke-width: 0px;
      }
    </style>
  </defs>
  <g id="Layer_2-2" data-name="Layer 2">
    <g id="Layer_1-2" data-name="Layer 1-2">
      <path class="cls-1" d="M90.17,2.73h-23.72l.24,63.75v31.62l-.24,5.93-4.94-9.88c-1.73-3.46-3.46-6.67-5.19-10.13-1.48-3.21-3.21-6.67-4.69-9.89-.74-1.73-1.49-3.21-2.23-4.94l-1.24-2.72-1.23-2.72-1.24-2.47-1.23-2.47c-.74-1.73-1.73-3.46-2.47-5.19l-5.19-9.89c-3.46-6.67-6.92-13.09-10.38-21L3.69,26.94l-.74,14.58-.74,14.82-.49,14.82-.49,8.16c-.25,10.13-.49,20.02-.74,29.9-.49,20.02-.49,39.78-.49,59.8h23.72c0-19.77,0-39.54.49-59.3.24-9.64.49-19.52.74-29.4l.49-6.67v.25l.99,2.22,1.24,2.72c.74,1.73,1.48,3.46,2.47,5.44,1.48,3.46,3.21,6.92,4.94,10.38l5.19,10.38,5.19,10.13c6.92,13.59,13.59,26.93,20.26,43.49l22.98-3.71c.25-4.94.49-10.13.74-15.07l.24-7.66.25-7.91c0-5.19.24-10.63.24-15.82l.25-10.13v-31.87l-.25-63.75h0Z"/>
      <path class="cls-1" d="M151.93,29.17h15.57V5.45c-17.79,0-36.32-.74-55.35.74l1.73,23.47c4.69-.25,9.63-.49,14.33-.49l-1.48,119.84c-4.94.25-9.88.49-14.58.74l1.73,23.72c17.29-1.48,35.08-.74,53.62-.49v-23.97h-17.05l1.48-119.84h0Z"/>
      <path class="cls-1" d="M260.9,46.96c-.25-1.73-.74-3.71-1.24-5.44-.49-1.73-.74-3.71-1.48-5.44-.49-1.73-1.23-3.71-1.98-5.44-.99-1.73-1.73-3.46-2.72-5.19-2.23-3.46-4.45-6.67-7.17-9.39-2.72-2.72-5.68-5.44-8.89-7.66-3.46-2.22-6.92-3.95-10.63-5.44-6.67-2.47-14.08-3.46-21.25-2.47l-14.82-.49c-1.48,58.56-1.73,117.12-.74,175.68l23.72-.25c-.25-18.04-.49-35.83-.49-53.62,5.93-2.23,11.86-4.7,17.54-8.16,6.18-3.46,12.11-8.16,17.05-13.84,2.47-2.96,4.94-6.18,6.67-9.88.49-.74.99-1.73,1.48-2.72l.49-1.23.49-1.48,1.98-5.44c1.73-6.92,2.72-14.08,2.72-21.25,0-3.7-.24-7.17-.74-10.87v.02ZM235.94,72.66l-.49,1.98-.49,1.48-.25.74-.49.49c-.24.49-.49.99-.74,1.48-.99,1.98-2.23,3.7-3.46,5.44-4.2,4.7-10.13,8.65-16.8,11.86,0-23.97.24-48.18.74-72.15,1.48.25,2.96.74,4.45,1.24,1.98.74,3.95,1.73,5.69,2.96,1.73,1.23,3.46,2.72,4.94,4.2,1.48,1.48,2.96,3.46,3.95,5.19l1.48,2.96c.49.99.99,1.98,1.23,2.96.49,1.23.74,2.22.99,3.46.25,1.23.49,2.22.74,3.46.24,2.47.49,4.94.49,7.41,0,5.19-.74,10.13-1.98,14.82v.02Z"/>
      <path class="cls-1" d="M355.28,46.96c-.25-1.73-.74-3.71-1.24-5.44-.49-1.73-.74-3.71-1.48-5.44-.49-1.73-1.23-3.71-1.98-5.44-.99-1.73-1.73-3.46-2.72-5.19-2.23-3.46-4.45-6.67-7.17-9.39-2.72-2.72-5.68-5.44-8.89-7.66-3.46-2.22-6.92-3.95-10.63-5.44-6.67-2.47-14.08-3.46-21.25-2.47l-14.82-.49c-1.48,58.56-1.73,117.12-.74,175.68l23.72-.25c-.25-18.04-.49-35.83-.49-53.62,5.93-2.23,11.86-4.7,17.54-8.16,6.18-3.46,12.11-8.16,17.05-13.84,2.47-2.96,4.94-6.18,6.67-9.88.49-.74.99-1.73,1.48-2.72l.49-1.23.49-1.48,1.98-5.44c1.73-6.92,2.72-14.08,2.72-21.25,0-3.7-.24-7.17-.74-10.87v.02ZM330.32,72.66l-.49,1.98-.49,1.48-.25.74-.49.49c-.24.49-.49.99-.74,1.48-.99,1.98-2.23,3.7-3.46,5.44-4.2,4.7-10.13,8.65-16.8,11.86,0-23.97.24-48.18.74-72.15,1.48.25,2.96.74,4.45,1.24,1.98.74,3.95,1.73,5.69,2.96,1.73,1.23,3.46,2.72,4.94,4.2,1.48,1.48,2.96,3.46,3.95,5.19l1.48,2.96c.49.99.99,1.98,1.23,2.96.49,1.23.74,2.22.99,3.46.25,1.23.49,2.22.74,3.46.24,2.47.49,4.94.49,7.41,0,5.19-.74,10.13-1.98,14.82v.02Z"/>
      <path class="cls-1" d="M492.66,55.61c-.49-2.23-1.24-4.2-1.98-6.43l-1.24-3.21-1.24-3.21c-.99-1.98-1.98-4.2-2.96-6.17-1.23-2.23-2.47-4.2-3.7-6.42-2.72-3.95-6.18-7.91-9.88-11.37-3.95-3.46-8.65-6.42-13.59-8.64-1.48-.49-2.72-.99-3.95-1.48-1.48-.25-2.72-.74-4.2-.99-2.47-.49-4.94-.74-7.16-.99-4.94-.49-9.88-.25-14.83.49-4.94.49-9.88,1.73-14.82,3.95s-9.88,5.44-13.84,9.88l17.54,15.81c1.48-1.48,3.46-2.72,5.93-3.95,2.47-.99,5.19-1.98,8.4-2.22,3.21-.49,6.42-.49,9.64-.25,1.48,0,2.96.25,4.45.49.74.25,1.23.49,1.98.49.49.25,1.23.49,1.73.74,2.47.99,4.7,2.47,6.92,4.2,1.98,1.98,3.96,4.45,5.93,7.17.74,1.23,1.73,2.72,2.47,3.95.74,1.48,1.48,2.96,1.98,4.69l1.23,2.48.74,2.47c.74,1.73,1.23,3.46,1.73,5.19,3.95,13.84,4.7,28.67,1.98,42.75-1.23,6.92-3.21,13.84-6.17,20.26s-6.67,12.35-11.12,16.8-9.39,7.41-14.58,8.4c-5.19.99-11.12,0-16.31-2.47-2.72-1.23-5.44-2.96-7.66-4.94s-4.45-4.2-6.17-6.92c-3.71-5.19-6.67-11.37-8.4-18.04-3.71-13.59-3.46-28.42-.99-43,1.23-7.41,3.21-14.57,5.68-21,2.72-6.43,6.18-12.36,10.63-17.3l-17.54-15.81c-6.67,7.17-11.37,15.57-14.82,23.97-3.71,8.65-5.69,17.54-7.17,25.94-1.48,8.64-2.47,17.54-2.22,26.44,0,8.89,1.23,18.04,3.46,26.93,2.47,8.89,6.42,17.79,12.1,25.7,2.72,3.95,6.18,7.91,9.89,11.12,3.95,3.21,8.15,6.17,12.85,8.4,4.69,2.22,9.63,3.7,15.07,4.45,5.19.99,10.63.74,16.06-.25,5.44-.99,10.38-2.96,15.07-5.68,4.45-2.47,8.4-5.93,11.86-9.39,6.92-6.92,12.11-15.07,15.81-23.47,3.71-8.4,6.43-17.05,8.16-25.94,3.21-17.79,2.47-36.08-2.72-53.62h-.03Z"/>
      <path class="cls-1" d="M606.31,2.73h-23.72l.24,63.75v31.62l-.24,5.93-4.94-9.88c-1.73-3.46-3.46-6.67-5.19-10.13-1.48-3.21-3.21-6.67-4.69-9.89-.74-1.73-1.49-3.21-2.23-4.94l-1.24-2.72-1.23-2.72-1.24-2.47-1.23-2.47c-.74-1.73-1.73-3.46-2.47-5.19l-5.19-9.89c-3.46-6.67-6.92-13.09-10.38-21l-22.73,4.2-.74,14.58-.74,14.82-.49,14.82-.49,8.16c-.25,10.13-.49,20.02-.74,29.9-.49,20.02-.49,39.78-.49,59.8h23.72c0-19.77,0-39.54.49-59.3.24-9.64.49-19.52.74-29.4l.49-6.67v.25l.99,2.22,1.24,2.72c.74,1.73,1.48,3.46,2.47,5.44,1.48,3.46,3.21,6.92,4.94,10.38s3.46,6.92,5.19,10.38l5.19,10.13c6.92,13.59,13.59,26.93,20.26,43.49l22.98-3.71c.25-4.94.49-10.13.74-15.07l.24-7.66.25-7.91c0-5.19.24-10.63.24-15.82l.25-10.13v-31.87l-.25-63.75h0Z"/>
    </g>
  </g>
</svg>