<svg xmlns="http://www.w3.org/2000/svg" xmlns:xlink="http://www.w3.org/1999/xlink" width="944" zoomAndPan="magnify" viewBox="0 0 708.75 567.000005" height="755" preserveAspectRatio="xMidYMid meet" version="1.0"><defs><clipPath id="9ca7abdd6a"><path d="M 130 199.339844 L 346 199.339844 L 346 412.773438 L 130 412.773438 Z M 130 199.339844 " clip-rule="nonzero"/></clipPath><clipPath id="9a16036231"><path d="M 576.066406 306.15625 L 706 306.15625 L 706 434.214844 L 576.066406 434.214844 Z M 576.066406 306.15625 " clip-rule="nonzero"/></clipPath><clipPath id="f58b086c6d"><path d="M 2 306.15625 L 126.726562 306.15625 L 126.726562 428.824219 L 2 428.824219 Z M 2 306.15625 " clip-rule="nonzero"/></clipPath><clipPath id="5062fc8abc"><path d="M 369 199.339844 L 585 199.339844 L 585 412.773438 L 369 412.773438 Z M 369 199.339844 " clip-rule="nonzero"/></clipPath><clipPath id="7181839284"><path d="M 331 181 L 496 181 L 496 375 L 331 375 Z M 331 181 " clip-rule="nonzero"/></clipPath><clipPath id="5fad226963"><path d="M 300.074219 171.148438 L 379.714844 131.484375 L 500.105469 373.214844 L 420.46875 412.878906 Z M 300.074219 171.148438 " clip-rule="nonzero"/></clipPath><clipPath id="1882056f21"><path d="M 379.570312 131.558594 L 299.929688 171.21875 L 420.324219 412.949219 L 499.960938 373.285156 Z M 379.570312 131.558594 " clip-rule="nonzero"/></clipPath><clipPath id="f0743315b8"><path d="M 313 164 L 352 164 L 352 193 L 313 193 Z M 313 164 " clip-rule="nonzero"/></clipPath><clipPath id="501a1d87e4"><path d="M 300.074219 171.148438 L 379.714844 131.484375 L 500.105469 373.214844 L 420.46875 412.878906 Z M 300.074219 171.148438 " clip-rule="nonzero"/></clipPath><clipPath id="ad0a966c57"><path d="M 379.570312 131.558594 L 299.929688 171.21875 L 420.324219 412.949219 L 499.960938 373.285156 Z M 379.570312 131.558594 " clip-rule="nonzero"/></clipPath><clipPath id="0886a605c9"><path d="M 479 243 L 490 243 L 490 245 L 479 245 Z M 479 243 " clip-rule="nonzero"/></clipPath><clipPath id="7cee81f4c6"><path d="M 405.917969 151.804688 L 589.976562 181.707031 L 577.367188 259.324219 L 393.308594 229.421875 Z M 405.917969 151.804688 " clip-rule="nonzero"/></clipPath><clipPath id="37b00c9a55"><path d="M 405.917969 151.804688 L 589.976562 181.707031 L 577.367188 259.324219 L 393.308594 229.421875 Z M 405.917969 151.804688 " clip-rule="nonzero"/></clipPath><clipPath id="59ba22c3b3"><path d="M 472 236 L 497 236 L 497 252 L 472 252 Z M 472 236 " clip-rule="nonzero"/></clipPath><clipPath id="6b3a1c9837"><path d="M 405.917969 151.804688 L 589.976562 181.707031 L 577.367188 259.324219 L 393.308594 229.421875 Z M 405.917969 151.804688 " clip-rule="nonzero"/></clipPath><clipPath id="07ff75edc4"><path d="M 405.917969 151.804688 L 589.976562 181.707031 L 577.367188 259.324219 L 393.308594 229.421875 Z M 405.917969 151.804688 " clip-rule="nonzero"/></clipPath><clipPath id="a5a9b26db2"><path d="M 395 167 L 579 167 L 579 251 L 395 251 Z M 395 167 " clip-rule="nonzero"/></clipPath><clipPath id="9bb0719c07"><path d="M 405.917969 151.804688 L 589.976562 181.707031 L 577.367188 259.324219 L 393.308594 229.421875 Z M 405.917969 151.804688 " clip-rule="nonzero"/></clipPath><clipPath id="913c25bfc9"><path d="M 405.917969 151.804688 L 589.976562 181.707031 L 577.367188 259.324219 L 393.308594 229.421875 Z M 405.917969 151.804688 " clip-rule="nonzero"/></clipPath><clipPath id="937f2629b9"><path d="M 393 160 L 586 160 L 586 258 L 393 258 Z M 393 160 " clip-rule="nonzero"/></clipPath><clipPath id="7e9b5a4dfb"><path d="M 405.917969 151.804688 L 589.976562 181.707031 L 577.367188 259.324219 L 393.308594 229.421875 Z M 405.917969 151.804688 " clip-rule="nonzero"/></clipPath><clipPath id="7a040e1431"><path d="M 405.917969 151.804688 L 589.976562 181.707031 L 577.367188 259.324219 L 393.308594 229.421875 Z M 405.917969 151.804688 " clip-rule="nonzero"/></clipPath><clipPath id="0dd3710ece"><path d="M 438 169 L 502 169 L 502 238 L 438 238 Z M 438 169 " clip-rule="nonzero"/></clipPath><clipPath id="66d7456774"><path d="M 405.917969 151.804688 L 589.976562 181.707031 L 577.367188 259.324219 L 393.308594 229.421875 Z M 405.917969 151.804688 " clip-rule="nonzero"/></clipPath><clipPath id="dacd4811ab"><path d="M 405.917969 151.804688 L 589.976562 181.707031 L 577.367188 259.324219 L 393.308594 229.421875 Z M 405.917969 151.804688 " clip-rule="nonzero"/></clipPath><clipPath id="a61f0b30b5"><path d="M 416 170 L 498 170 L 498 233 L 416 233 Z M 416 170 " clip-rule="nonzero"/></clipPath><clipPath id="4af7c82c06"><path d="M 405.917969 151.804688 L 589.976562 181.707031 L 577.367188 259.324219 L 393.308594 229.421875 Z M 405.917969 151.804688 " clip-rule="nonzero"/></clipPath><clipPath id="4966d87487"><path d="M 405.917969 151.804688 L 589.976562 181.707031 L 577.367188 259.324219 L 393.308594 229.421875 Z M 405.917969 151.804688 " clip-rule="nonzero"/></clipPath><clipPath id="ce74660f58"><path d="M 463 169 L 502 169 L 502 243 L 463 243 Z M 463 169 " clip-rule="nonzero"/></clipPath><clipPath id="e35045eb59"><path d="M 405.917969 151.804688 L 589.976562 181.707031 L 577.367188 259.324219 L 393.308594 229.421875 Z M 405.917969 151.804688 " clip-rule="nonzero"/></clipPath><clipPath id="017d596559"><path d="M 405.917969 151.804688 L 589.976562 181.707031 L 577.367188 259.324219 L 393.308594 229.421875 Z M 405.917969 151.804688 " clip-rule="nonzero"/></clipPath><clipPath id="3534220e2e"><path d="M 489 169 L 504 169 L 504 247 L 489 247 Z M 489 169 " clip-rule="nonzero"/></clipPath><clipPath id="e4f889d22c"><path d="M 405.917969 151.804688 L 589.976562 181.707031 L 577.367188 259.324219 L 393.308594 229.421875 Z M 405.917969 151.804688 " clip-rule="nonzero"/></clipPath><clipPath id="b37c9c1719"><path d="M 405.917969 151.804688 L 589.976562 181.707031 L 577.367188 259.324219 L 393.308594 229.421875 Z M 405.917969 151.804688 " clip-rule="nonzero"/></clipPath><clipPath id="64c5dc87e9"><path d="M 502 169 L 529 169 L 529 250 L 502 250 Z M 502 169 " clip-rule="nonzero"/></clipPath><clipPath id="ee7b79fdc7"><path d="M 405.917969 151.804688 L 589.976562 181.707031 L 577.367188 259.324219 L 393.308594 229.421875 Z M 405.917969 151.804688 " clip-rule="nonzero"/></clipPath><clipPath id="e650cbcda0"><path d="M 405.917969 151.804688 L 589.976562 181.707031 L 577.367188 259.324219 L 393.308594 229.421875 Z M 405.917969 151.804688 " clip-rule="nonzero"/></clipPath><clipPath id="ca8ffa162c"><path d="M 503 170 L 562 170 L 562 251 L 503 251 Z M 503 170 " clip-rule="nonzero"/></clipPath><clipPath id="cbaa07ab28"><path d="M 405.917969 151.804688 L 589.976562 181.707031 L 577.367188 259.324219 L 393.308594 229.421875 Z M 405.917969 151.804688 " clip-rule="nonzero"/></clipPath><clipPath id="6d03d136bb"><path d="M 405.917969 151.804688 L 589.976562 181.707031 L 577.367188 259.324219 L 393.308594 229.421875 Z M 405.917969 151.804688 " clip-rule="nonzero"/></clipPath><clipPath id="7c1f85cf20"><path d="M 144.28125 271.894531 L 246.71875 271.894531 L 246.71875 381 L 144.28125 381 Z M 144.28125 271.894531 " clip-rule="nonzero"/></clipPath><clipPath id="16f1797a41"><path d="M 195.5 271.894531 C 167.210938 271.894531 144.28125 296.273438 144.28125 326.347656 C 144.28125 356.425781 167.210938 380.804688 195.5 380.804688 C 223.785156 380.804688 246.71875 356.425781 246.71875 326.347656 C 246.71875 296.273438 223.785156 271.894531 195.5 271.894531 Z M 195.5 271.894531 " clip-rule="nonzero"/></clipPath><clipPath id="1af7b0c1cc"><path d="M 233.960938 271.894531 L 336.398438 271.894531 L 336.398438 381 L 233.960938 381 Z M 233.960938 271.894531 " clip-rule="nonzero"/></clipPath><clipPath id="63c26da44b"><path d="M 285.179688 271.894531 C 256.894531 271.894531 233.960938 296.273438 233.960938 326.347656 C 233.960938 356.425781 256.894531 380.804688 285.179688 380.804688 C 313.46875 380.804688 336.398438 356.425781 336.398438 326.347656 C 336.398438 296.273438 313.46875 271.894531 285.179688 271.894531 Z M 285.179688 271.894531 " clip-rule="nonzero"/></clipPath><clipPath id="d09b7514aa"><path d="M 381.917969 271.894531 L 473.941406 271.894531 L 473.941406 370 L 381.917969 370 Z M 381.917969 271.894531 " clip-rule="nonzero"/></clipPath><clipPath id="16971efbe3"><path d="M 427.929688 271.894531 C 402.519531 271.894531 381.917969 293.796875 381.917969 320.8125 C 381.917969 347.832031 402.519531 369.734375 427.929688 369.734375 C 453.34375 369.734375 473.941406 347.832031 473.941406 320.8125 C 473.941406 293.796875 453.34375 271.894531 427.929688 271.894531 Z M 427.929688 271.894531 " clip-rule="nonzero"/></clipPath><clipPath id="b40c83228f"><path d="M 465.125 282.964844 L 557.148438 282.964844 L 557.148438 381 L 465.125 381 Z M 465.125 282.964844 " clip-rule="nonzero"/></clipPath><clipPath id="19eeefdeb0"><path d="M 511.136719 282.964844 C 485.726562 282.964844 465.125 304.867188 465.125 331.886719 C 465.125 358.902344 485.726562 380.804688 511.136719 380.804688 C 536.546875 380.804688 557.148438 358.902344 557.148438 331.886719 C 557.148438 304.867188 536.546875 282.964844 511.136719 282.964844 Z M 511.136719 282.964844 " clip-rule="nonzero"/></clipPath><clipPath id="7d769dd6be"><path d="M 519.613281 271.894531 L 576.890625 271.894531 L 576.890625 332.976562 L 519.613281 332.976562 Z M 519.613281 271.894531 " clip-rule="nonzero"/></clipPath><clipPath id="f1ed5c51b7"><path d="M 548.25 271.894531 C 532.433594 271.894531 519.613281 285.527344 519.613281 302.34375 C 519.613281 319.160156 532.433594 332.792969 548.25 332.792969 C 564.066406 332.792969 576.890625 319.160156 576.890625 302.34375 C 576.890625 285.527344 564.066406 271.894531 548.25 271.894531 Z M 548.25 271.894531 " clip-rule="nonzero"/></clipPath><clipPath id="88d50b54fb"><path d="M 585.886719 347.480469 L 627.207031 347.480469 L 627.207031 392 L 585.886719 392 Z M 585.886719 347.480469 " clip-rule="nonzero"/></clipPath><clipPath id="0149df50aa"><path d="M 606.546875 347.480469 C 595.136719 347.480469 585.886719 357.445312 585.886719 369.734375 C 585.886719 382.023438 595.136719 391.984375 606.546875 391.984375 C 617.957031 391.984375 627.207031 382.023438 627.207031 369.734375 C 627.207031 357.445312 617.957031 347.480469 606.546875 347.480469 Z M 606.546875 347.480469 " clip-rule="nonzero"/></clipPath><clipPath id="f2369957a4"><path d="M 610 369.734375 L 651.320312 369.734375 L 651.320312 414.28125 L 610 414.28125 Z M 610 369.734375 " clip-rule="nonzero"/></clipPath><clipPath id="dfeb81847d"><path d="M 630.660156 369.734375 C 619.25 369.734375 610 379.695312 610 391.984375 C 610 404.273438 619.25 414.238281 630.660156 414.238281 C 642.070312 414.238281 651.320312 404.273438 651.320312 391.984375 C 651.320312 379.695312 642.070312 369.734375 630.660156 369.734375 Z M 630.660156 369.734375 " clip-rule="nonzero"/></clipPath><clipPath id="96510cb425"><path d="M 630.660156 369.734375 L 671.980469 369.734375 L 671.980469 414.28125 L 630.660156 414.28125 Z M 630.660156 369.734375 " clip-rule="nonzero"/></clipPath><clipPath id="02785c7170"><path d="M 651.320312 369.734375 C 639.910156 369.734375 630.660156 379.695312 630.660156 391.984375 C 630.660156 404.273438 639.910156 414.238281 651.320312 414.238281 C 662.730469 414.238281 671.980469 404.273438 671.980469 391.984375 C 671.980469 379.695312 662.730469 369.734375 651.320312 369.734375 Z M 651.320312 369.734375 " clip-rule="nonzero"/></clipPath><clipPath id="c3af161a23"><path d="M 651.320312 347.480469 L 692.640625 347.480469 L 692.640625 392 L 651.320312 392 Z M 651.320312 347.480469 " clip-rule="nonzero"/></clipPath><clipPath id="14cff7f4ff"><path d="M 671.980469 347.480469 C 660.570312 347.480469 651.320312 357.445312 651.320312 369.734375 C 651.320312 382.023438 660.570312 391.984375 671.980469 391.984375 C 683.390625 391.984375 692.640625 382.023438 692.640625 369.734375 C 692.640625 357.445312 683.390625 347.480469 671.980469 347.480469 Z M 671.980469 347.480469 " clip-rule="nonzero"/></clipPath><clipPath id="aefbbf8a0a"><path d="M 15.773438 347.480469 L 57.09375 347.480469 L 57.09375 392 L 15.773438 392 Z M 15.773438 347.480469 " clip-rule="nonzero"/></clipPath><clipPath id="137f8ab1f5"><path d="M 36.433594 347.480469 C 25.023438 347.480469 15.773438 357.445312 15.773438 369.734375 C 15.773438 382.023438 25.023438 391.984375 36.433594 391.984375 C 47.84375 391.984375 57.09375 382.023438 57.09375 369.734375 C 57.09375 357.445312 47.84375 347.480469 36.433594 347.480469 Z M 36.433594 347.480469 " clip-rule="nonzero"/></clipPath><clipPath id="2ecdc86b96"><path d="M 49.804688 358.554688 L 91.125 358.554688 L 91.125 403.101562 L 49.804688 403.101562 Z M 49.804688 358.554688 " clip-rule="nonzero"/></clipPath><clipPath id="d2558d460e"><path d="M 70.464844 358.554688 C 59.054688 358.554688 49.804688 368.515625 49.804688 380.804688 C 49.804688 393.09375 59.054688 403.058594 70.464844 403.058594 C 81.875 403.058594 91.125 393.09375 91.125 380.804688 C 91.125 368.515625 81.875 358.554688 70.464844 358.554688 Z M 70.464844 358.554688 " clip-rule="nonzero"/></clipPath><clipPath id="568dbe346f"><path d="M 79.003906 347.480469 L 120.324219 347.480469 L 120.324219 392 L 79.003906 392 Z M 79.003906 347.480469 " clip-rule="nonzero"/></clipPath><clipPath id="69a211a7c5"><path d="M 99.664062 347.480469 C 88.253906 347.480469 79.003906 357.445312 79.003906 369.734375 C 79.003906 382.023438 88.253906 391.984375 99.664062 391.984375 C 111.074219 391.984375 120.324219 382.023438 120.324219 369.734375 C 120.324219 357.445312 111.074219 347.480469 99.664062 347.480469 Z M 99.664062 347.480469 " clip-rule="nonzero"/></clipPath><clipPath id="177975fa36"><path d="M 199 297 L 307 297 L 307 329 L 199 329 Z M 199 297 " clip-rule="nonzero"/></clipPath><clipPath id="d0f23ba71b"><path d="M 195.5 306.378906 L 304.445312 290.578125 L 307.800781 313.703125 L 198.851562 329.5 Z M 195.5 306.378906 " clip-rule="nonzero"/></clipPath><clipPath id="bef8895aa8"><path d="M 195.5 306.378906 L 304.445312 290.578125 L 307.800781 313.703125 L 198.851562 329.5 Z M 195.5 306.378906 " clip-rule="nonzero"/></clipPath><clipPath id="20e58e75df"><path d="M 410 297 L 518 297 L 518 330 L 410 330 Z M 410 297 " clip-rule="nonzero"/></clipPath><clipPath id="2d1f83b8f2"><path d="M 412.550781 290.570312 L 521.300781 307.6875 L 517.664062 330.769531 L 408.917969 313.652344 Z M 412.550781 290.570312 " clip-rule="nonzero"/></clipPath><clipPath id="e0a3fefbdf"><path d="M 521.355469 307.695312 L 412.605469 290.578125 L 408.972656 313.660156 L 517.722656 330.777344 Z M 521.355469 307.695312 " clip-rule="nonzero"/></clipPath><clipPath id="843022a35e"><path d="M 45 364.195312 L 96 364.195312 L 96 375.429688 L 45 375.429688 Z M 45 364.195312 " clip-rule="nonzero"/></clipPath><clipPath id="e0aec8e5be"><path d="M 610.429688 364.195312 L 661.976562 364.195312 L 661.976562 375.429688 L 610.429688 375.429688 Z M 610.429688 364.195312 " clip-rule="nonzero"/></clipPath></defs><g clip-path="url(#9ca7abdd6a)"><path fill="#a41111" d="M 238.945312 412.921875 C 258.707031 412.871094 277.835938 407.378906 295.300781 394.527344 C 302.441406 389.273438 309.621094 383.929688 315.972656 377.785156 C 325.441406 368.632812 331.828125 357.269531 336.714844 345.050781 C 340.933594 334.496094 343.351562 323.523438 344.609375 312.289062 C 346.359375 296.640625 344.828125 281.316406 338.613281 266.765625 C 325.5625 236.207031 302.378906 215.3125 270.597656 204.0625 C 260.265625 200.40625 249.546875 199.324219 238.65625 199.921875 C 200.390625 202.015625 167.058594 226.222656 146.328125 257.488281 C 138.238281 269.6875 132.746094 283.050781 131.246094 297.65625 C 126.746094 341.46875 155.949219 392.878906 199.089844 406.40625 C 212.453125 410.597656 225.839844 412.957031 238.945312 412.921875 Z M 238.945312 412.921875 " fill-opacity="1" fill-rule="nonzero"/></g><path fill="#fff6e4" d="M 237.53125 337.363281 C 258.640625 336.714844 276.234375 328.769531 290.132812 312.859375 C 296.964844 305.042969 302.171875 296.304688 305.390625 286.414062 C 305.6875 285.503906 305.917969 284.574219 306.1875 283.65625 C 306.957031 281.023438 306.261719 278.855469 303.882812 277.492188 C 301.847656 276.324219 299.359375 277.113281 297.703125 279.632812 C 295.652344 282.75 294.003906 286.125 292.011719 289.28125 C 282.125 304.914062 268.972656 316.507812 250.648438 320.945312 C 231.289062 325.636719 214.011719 320.84375 199.039062 307.886719 C 191.785156 301.609375 186.109375 294.058594 182.257812 285.1875 C 180.5625 281.285156 176.347656 279.46875 173.09375 281.039062 C 169.238281 282.902344 167.777344 287.039062 169.894531 291.042969 C 179.878906 309.929688 193.722656 324.800781 214.039062 332.742188 C 221.597656 335.695312 229.503906 337.082031 237.53125 337.363281 Z M 237.53125 337.363281 " fill-opacity="1" fill-rule="nonzero"/><path fill="#fff6e4" d="M 212.386719 269.128906 C 212.484375 273.746094 216.710938 277.632812 221.488281 277.5 C 225.855469 277.375 229.902344 273.214844 229.855469 268.890625 C 229.800781 263.945312 225.828125 260.28125 220.636719 260.390625 C 215.8125 260.492188 212.285156 264.230469 212.386719 269.128906 Z M 212.386719 269.128906 " fill-opacity="1" fill-rule="nonzero"/><path fill="#fff6e4" d="M 257.722656 265.128906 C 257.726562 270.085938 261.09375 273.519531 265.910156 273.484375 C 270.550781 273.449219 274.3125 269.527344 274.285156 264.75 C 274.257812 260.101562 270.511719 256.347656 265.917969 256.367188 C 261.121094 256.382812 257.714844 260.027344 257.722656 265.128906 Z M 257.722656 265.128906 " fill-opacity="1" fill-rule="nonzero"/><g clip-path="url(#9a16036231)"><path fill="#a41111" d="M 640.5625 434.339844 C 628.699219 434.308594 617.21875 431.015625 606.738281 423.300781 C 602.453125 420.148438 598.144531 416.9375 594.332031 413.253906 C 588.648438 407.757812 584.816406 400.941406 581.882812 393.605469 C 579.351562 387.273438 577.898438 380.6875 577.144531 373.941406 C 576.09375 364.554688 577.011719 355.355469 580.742188 346.621094 C 588.578125 328.28125 602.492188 315.742188 621.566406 308.988281 C 627.765625 306.792969 634.195312 306.144531 640.734375 306.503906 C 663.699219 307.761719 683.707031 322.289062 696.148438 341.054688 C 701.003906 348.375 704.300781 356.394531 705.199219 365.160156 C 707.898438 391.457031 690.375 422.3125 664.480469 430.429688 C 656.460938 432.945312 648.425781 434.359375 640.5625 434.339844 Z M 640.5625 434.339844 " fill-opacity="1" fill-rule="nonzero"/></g><path fill="#fff6e4" d="M 641.410156 388.992188 C 628.742188 388.601562 618.183594 383.835938 609.839844 374.285156 C 605.738281 369.59375 602.613281 364.351562 600.683594 358.414062 C 600.503906 357.867188 600.367188 357.308594 600.203125 356.757812 C 599.742188 355.179688 600.160156 353.878906 601.585938 353.058594 C 602.808594 352.359375 604.300781 352.832031 605.296875 354.34375 C 606.527344 356.214844 607.515625 358.242188 608.710938 360.132812 C 614.648438 369.519531 622.539062 376.476562 633.535156 379.140625 C 645.15625 381.957031 655.523438 379.078125 664.511719 371.300781 C 668.863281 367.535156 672.273438 363 674.582031 357.679688 C 675.601562 355.335938 678.128906 354.246094 680.082031 355.1875 C 682.394531 356.308594 683.273438 358.789062 682.003906 361.191406 C 676.011719 372.527344 667.703125 381.453125 655.507812 386.21875 C 650.972656 387.992188 646.226562 388.824219 641.410156 388.992188 Z M 641.410156 388.992188 " fill-opacity="1" fill-rule="nonzero"/><path fill="#fff6e4" d="M 656.5 348.042969 C 656.441406 350.8125 653.90625 353.144531 651.039062 353.0625 C 648.417969 352.992188 645.988281 350.492188 646.015625 347.894531 C 646.050781 344.929688 648.433594 342.730469 651.546875 342.796875 C 654.445312 342.859375 656.5625 345.097656 656.5 348.042969 Z M 656.5 348.042969 " fill-opacity="1" fill-rule="nonzero"/><path fill="#fff6e4" d="M 629.292969 345.640625 C 629.289062 348.617188 627.269531 350.675781 624.378906 350.652344 C 621.589844 350.632812 619.335938 348.277344 619.351562 345.410156 C 619.367188 342.621094 621.613281 340.371094 624.375 340.378906 C 627.25 340.390625 629.296875 342.578125 629.292969 345.640625 Z M 629.292969 345.640625 " fill-opacity="1" fill-rule="nonzero"/><g clip-path="url(#f58b086c6d)"><path fill="#a41111" d="M 64.980469 428.886719 C 76.335938 428.855469 87.328125 425.703125 97.363281 418.316406 C 101.46875 415.296875 105.59375 412.226562 109.242188 408.695312 C 114.683594 403.4375 118.355469 396.90625 121.160156 389.886719 C 123.585938 383.820312 124.976562 377.515625 125.699219 371.058594 C 126.703125 362.070312 125.824219 353.261719 122.253906 344.898438 C 114.753906 327.339844 101.429688 315.332031 83.167969 308.867188 C 77.230469 306.769531 71.074219 306.144531 64.816406 306.488281 C 42.828125 307.695312 23.671875 321.605469 11.757812 339.570312 C 7.109375 346.578125 3.953125 354.257812 3.089844 362.652344 C 0.507812 387.828125 17.289062 417.367188 42.078125 425.140625 C 49.757812 427.550781 57.449219 428.90625 64.980469 428.886719 Z M 64.980469 428.886719 " fill-opacity="1" fill-rule="nonzero"/></g><path fill="#fff6e4" d="M 64.167969 385.46875 C 76.296875 385.09375 86.40625 380.53125 94.394531 371.386719 C 98.320312 366.894531 101.3125 361.875 103.164062 356.191406 C 103.332031 355.667969 103.464844 355.132812 103.621094 354.605469 C 104.0625 353.09375 103.664062 351.847656 102.296875 351.0625 C 101.125 350.394531 99.695312 350.847656 98.746094 352.292969 C 97.566406 354.085938 96.621094 356.023438 95.472656 357.839844 C 89.792969 366.824219 82.234375 373.484375 71.707031 376.035156 C 60.582031 378.730469 50.652344 375.976562 42.050781 368.53125 C 37.878906 364.921875 34.617188 360.582031 32.40625 355.484375 C 31.433594 353.242188 29.011719 352.199219 27.140625 353.101562 C 24.925781 354.175781 24.085938 356.550781 25.300781 358.851562 C 31.039062 369.703125 38.992188 378.25 50.667969 382.8125 C 55.011719 384.507812 59.554688 385.308594 64.167969 385.46875 Z M 64.167969 385.46875 " fill-opacity="1" fill-rule="nonzero"/><path fill="#fff6e4" d="M 49.71875 346.257812 C 49.773438 348.910156 52.203125 351.144531 54.949219 351.066406 C 57.457031 350.996094 59.785156 348.605469 59.757812 346.121094 C 59.726562 343.277344 57.441406 341.175781 54.460938 341.238281 C 51.6875 341.296875 49.660156 343.441406 49.71875 346.257812 Z M 49.71875 346.257812 " fill-opacity="1" fill-rule="nonzero"/><path fill="#fff6e4" d="M 75.769531 343.957031 C 75.773438 346.808594 77.707031 348.78125 80.476562 348.761719 C 83.144531 348.738281 85.304688 346.488281 85.289062 343.742188 C 85.273438 341.070312 83.121094 338.914062 80.480469 338.925781 C 77.722656 338.933594 75.765625 341.027344 75.769531 343.957031 Z M 75.769531 343.957031 " fill-opacity="1" fill-rule="nonzero"/><g clip-path="url(#5062fc8abc)"><path fill="#a41111" d="M 476.265625 412.921875 C 456.5 412.871094 437.375 407.378906 419.90625 394.527344 C 412.769531 389.273438 405.589844 383.929688 399.238281 377.785156 C 389.769531 368.632812 383.378906 357.269531 378.496094 345.050781 C 374.273438 334.496094 371.859375 323.523438 370.601562 312.289062 C 368.851562 296.640625 370.378906 281.316406 376.597656 266.765625 C 389.648438 236.207031 412.832031 215.3125 444.613281 204.0625 C 454.945312 200.40625 465.660156 199.324219 476.550781 199.921875 C 514.816406 202.015625 548.152344 226.222656 568.882812 257.488281 C 576.972656 269.6875 582.464844 283.050781 583.964844 297.65625 C 588.460938 341.46875 559.261719 392.878906 516.121094 406.40625 C 502.753906 410.597656 489.371094 412.957031 476.265625 412.921875 Z M 476.265625 412.921875 " fill-opacity="1" fill-rule="nonzero"/></g><path fill="#fff6e4" d="M 477.679688 337.363281 C 456.570312 336.714844 438.976562 328.769531 425.074219 312.859375 C 418.246094 305.042969 413.039062 296.304688 409.816406 286.414062 C 409.523438 285.503906 409.292969 284.574219 409.023438 283.65625 C 408.253906 281.023438 408.949219 278.855469 411.328125 277.492188 C 413.359375 276.324219 415.847656 277.113281 417.503906 279.632812 C 419.554688 282.75 421.203125 286.125 423.199219 289.28125 C 433.085938 304.914062 446.238281 316.507812 464.558594 320.945312 C 483.921875 325.636719 501.195312 320.84375 516.167969 307.886719 C 523.421875 301.609375 529.101562 294.058594 532.953125 285.1875 C 534.644531 281.285156 538.859375 279.46875 542.113281 281.039062 C 545.96875 282.902344 547.433594 287.039062 545.316406 291.042969 C 535.332031 309.929688 521.488281 324.800781 501.171875 332.742188 C 493.613281 335.695312 485.703125 337.082031 477.679688 337.363281 Z M 477.679688 337.363281 " fill-opacity="1" fill-rule="nonzero"/><path fill="#fff6e4" d="M 502.820312 269.128906 C 502.726562 273.746094 498.496094 277.632812 493.722656 277.5 C 489.351562 277.375 485.308594 273.214844 485.355469 268.890625 C 485.410156 263.945312 489.378906 260.28125 494.570312 260.390625 C 499.394531 260.492188 502.921875 264.230469 502.820312 269.128906 Z M 502.820312 269.128906 " fill-opacity="1" fill-rule="nonzero"/><path fill="#fff6e4" d="M 457.488281 265.128906 C 457.480469 270.085938 454.117188 273.519531 449.296875 273.484375 C 444.65625 273.449219 440.898438 269.527344 440.925781 264.75 C 440.949219 260.101562 444.695312 256.347656 449.292969 256.367188 C 454.089844 256.382812 457.492188 260.027344 457.488281 265.128906 Z M 457.488281 265.128906 " fill-opacity="1" fill-rule="nonzero"/><g clip-path="url(#7181839284)"><g clip-path="url(#5fad226963)"><g clip-path="url(#1882056f21)"><path fill="#a41414" d="M 491.117188 374.636719 C 458.382812 368.394531 427.496094 353.933594 401.949219 332.488281 C 374.734375 309.652344 354.15625 279.730469 342.585938 246.078125 C 335.84375 226.460938 332.195312 206 331.859375 185.246094 C 331.839844 182.929688 334.246094 181.136719 336.367188 181.269531 C 338.835938 181.445312 340.28125 183.484375 340.34375 185.777344 C 341.152344 220.839844 351.921875 255.378906 370.984375 284.867188 C 388.648438 312.1875 413.699219 334.042969 442.417969 349.042969 C 458.203125 357.292969 475.207031 363.207031 492.6875 366.71875 C 497.144531 367.632812 495.660156 375.507812 491.117188 374.636719 Z M 491.117188 374.636719 " fill-opacity="1" fill-rule="nonzero"/></g></g></g><g clip-path="url(#f0743315b8)"><g clip-path="url(#501a1d87e4)"><g clip-path="url(#ad0a966c57)"><path fill="#a41414" d="M 350.878906 174.582031 C 346.695312 178.558594 343.226562 183.097656 340.445312 188.160156 C 338.949219 190.90625 334.558594 189.792969 334.042969 186.914062 C 332.992188 180.898438 332.046875 174.878906 330.824219 168.945312 C 333.292969 168.796875 335.804688 168.628906 338.269531 168.480469 C 338.152344 174 337.582031 179.476562 337.097656 185.015625 C 336.875 187.9375 333.085938 190.421875 330.511719 188.296875 C 324.742188 183.546875 319.46875 178.277344 314.671875 172.558594 C 311.625 168.9375 316.117188 163.1875 320.222656 166.117188 C 327.855469 171.558594 334.230469 178.28125 339.390625 186.144531 C 340.683594 188.09375 339.359375 190.972656 337.453125 191.921875 C 335.160156 193.0625 332.972656 191.933594 331.679688 189.984375 C 327.402344 183.464844 321.851562 177.847656 315.539062 173.316406 C 317.378906 171.15625 319.222656 168.992188 321.089844 166.875 C 325.644531 172.335938 330.703125 177.277344 336.019531 181.984375 C 333.53125 182.84375 331.082031 183.6875 328.59375 184.546875 C 329.25 179.03125 329.757812 173.53125 330.761719 168.058594 C 331.089844 166.21875 332.28125 164.707031 334.273438 164.578125 C 336.027344 164.515625 337.972656 165.710938 338.207031 167.59375 C 338.953125 173.65625 340.007812 179.675781 340.949219 185.691406 C 338.808594 185.300781 336.6875 184.839844 334.542969 184.449219 C 337.757812 178.957031 341.636719 173.941406 346.210938 169.554688 C 349.484375 166.25 354.152344 171.492188 350.878906 174.582031 Z M 350.878906 174.582031 " fill-opacity="1" fill-rule="nonzero"/></g></g></g><g clip-path="url(#0886a605c9)"><g clip-path="url(#7cee81f4c6)"><g clip-path="url(#37b00c9a55)"><path fill="#a51515" d="M 479.855469 243.128906 C 482.933594 243.679688 486.117188 244.199219 489.25 244.707031 " fill-opacity="1" fill-rule="nonzero"/></g></g></g><g clip-path="url(#59ba22c3b3)"><g clip-path="url(#6b3a1c9837)"><g clip-path="url(#07ff75edc4)"><path stroke-linecap="butt" transform="matrix(0.489694, 0.0795496, -0.0795496, 0.489694, 400.948859, 65.202479)" fill="none" stroke-linejoin="miter" d="M 214.497996 328.497223 C 220.800208 328.59819 227.302159 328.602894 233.699289 328.600695 " stroke="#33221a" stroke-width="1" stroke-opacity="1" stroke-miterlimit="10"/></g></g></g><g clip-path="url(#a5a9b26db2)"><g clip-path="url(#9bb0719c07)"><g clip-path="url(#913c25bfc9)"><path fill="#a51515" d="M 578.386719 249.835938 C 572.945312 250.210938 567.484375 250.429688 561.996094 250.492188 C 556.808594 250.554688 551.636719 250.519531 546.480469 250.386719 C 544.328125 250.335938 542.230469 250.246094 540.085938 250.148438 C 536.144531 249.960938 532.214844 249.726562 528.289062 249.441406 C 522.03125 248.976562 515.796875 248.367188 509.683594 247.625 C 507.5625 247.378906 505.449219 247.085938 503.328125 246.84375 L 489.339844 244.46875 L 480 242.851562 L 463.816406 240.074219 C 459.441406 239.160156 455.222656 238.222656 451.058594 237.246094 C 446.796875 236.253906 442.679688 235.28125 438.671875 234.277344 C 435.921875 233.582031 433.265625 232.898438 430.664062 232.222656 C 428.058594 231.550781 425.558594 230.84375 423.101562 230.191406 C 420.9375 229.589844 418.824219 228.992188 416.804688 228.414062 C 408.453125 226.003906 401.183594 223.714844 395.269531 221.75 L 500.640625 168.097656 C 501.625 167.605469 502.847656 167.804688 503.617188 168.632812 Z M 578.386719 249.835938 " fill-opacity="1" fill-rule="nonzero"/></g></g></g><g clip-path="url(#937f2629b9)"><g clip-path="url(#7e9b5a4dfb)"><g clip-path="url(#7a040e1431)"><path stroke-linecap="butt" transform="matrix(0.489694, 0.0795496, -0.0795496, 0.489694, 400.948859, 65.202479)" fill="none" stroke-linejoin="miter" d="M 412.702227 309.995808 C 401.997278 312.500585 391.202968 314.7008 380.303755 316.598981 C 370.002973 318.399948 359.701715 320.001569 349.399981 321.403845 C 345.101293 321.998456 340.898786 322.497674 336.600491 322.996498 C 328.69812 323.897326 320.803914 324.701105 312.901067 325.402588 C 300.300366 326.500287 287.699582 327.302854 275.296799 327.802041 C 270.997161 327.997961 266.697915 328.098093 262.399539 328.301785 L 233.801028 328.097576 L 214.695915 327.898711 L 181.5996 327.603536 C 172.599729 327.198944 163.903156 326.697221 155.302763 326.100104 C 146.503024 325.503463 137.997155 324.898968 129.698798 324.196948 C 124.002706 323.702372 118.496926 323.200812 113.102476 322.69712 C 107.701517 322.202463 102.499034 321.603771 97.399717 321.099998 C 92.899699 320.602569 88.501978 320.0965 84.297093 319.598989 C 66.901962 317.503027 51.698764 315.298275 39.297178 313.300493 L 231.601517 172.498189 C 233.40094 171.200785 235.897909 171.201982 237.696611 172.600893 Z M 412.702227 309.995808 " stroke="#33221a" stroke-width="1" stroke-opacity="1" stroke-miterlimit="10"/></g></g></g><g clip-path="url(#0dd3710ece)"><g clip-path="url(#66d7456774)"><g clip-path="url(#dacd4811ab)"><path fill="#f9e7d5" d="M 501.597656 169.007812 L 451.066406 237.195312 C 446.804688 236.203125 442.6875 235.234375 438.679688 234.230469 Z M 501.597656 169.007812 " fill-opacity="1" fill-rule="nonzero"/></g></g></g><g clip-path="url(#a61f0b30b5)"><g clip-path="url(#4af7c82c06)"><g clip-path="url(#4966d87487)"><path fill="#f9e7d5" d="M 497.347656 170.730469 L 430.621094 232.167969 C 428.015625 231.492188 425.519531 230.785156 423.0625 230.132812 C 420.898438 229.53125 418.78125 228.9375 416.765625 228.359375 Z M 497.347656 170.730469 " fill-opacity="1" fill-rule="nonzero"/></g></g></g><g clip-path="url(#ce74660f58)"><g clip-path="url(#e35045eb59)"><g clip-path="url(#017d596559)"><path fill="#f9e7d5" d="M 501.597656 169.007812 L 479.960938 242.796875 L 463.777344 240.015625 Z M 501.597656 169.007812 " fill-opacity="1" fill-rule="nonzero"/></g></g></g><g clip-path="url(#3534220e2e)"><g clip-path="url(#e4f889d22c)"><g clip-path="url(#b37c9c1719)"><path fill="#f9e7d5" d="M 503.335938 246.792969 L 501.597656 169.007812 L 489.347656 244.421875 L 489.300781 244.714844 Z M 503.335938 246.792969 " fill-opacity="1" fill-rule="nonzero"/></g></g></g><g clip-path="url(#64c5dc87e9)"><g clip-path="url(#ee7b79fdc7)"><g clip-path="url(#e650cbcda0)"><path fill="#f9e7d5" d="M 528.289062 249.441406 C 522.03125 248.976562 515.796875 248.367188 509.683594 247.625 L 502.429688 169.144531 Z M 528.289062 249.441406 " fill-opacity="1" fill-rule="nonzero"/></g></g></g><g clip-path="url(#ca8ffa162c)"><g clip-path="url(#cbaa07ab28)"><g clip-path="url(#6d03d136bb)"><path fill="#f9e7d5" d="M 540.085938 250.148438 L 503.21875 170.78125 L 561.9375 250.535156 Z M 540.085938 250.148438 " fill-opacity="1" fill-rule="nonzero"/></g></g></g><g clip-path="url(#7c1f85cf20)"><g clip-path="url(#16f1797a41)"><path fill="#a41111" d="M 144.28125 271.894531 L 246.71875 271.894531 L 246.71875 380.734375 L 144.28125 380.734375 Z M 144.28125 271.894531 " fill-opacity="1" fill-rule="nonzero"/></g></g><g clip-path="url(#1af7b0c1cc)"><g clip-path="url(#63c26da44b)"><path fill="#a41111" d="M 233.960938 271.894531 L 336.398438 271.894531 L 336.398438 380.734375 L 233.960938 380.734375 Z M 233.960938 271.894531 " fill-opacity="1" fill-rule="nonzero"/></g></g><g clip-path="url(#d09b7514aa)"><g clip-path="url(#16971efbe3)"><path fill="#a41111" d="M 381.917969 271.894531 L 473.941406 271.894531 L 473.941406 369.667969 L 381.917969 369.667969 Z M 381.917969 271.894531 " fill-opacity="1" fill-rule="nonzero"/></g></g><g clip-path="url(#b40c83228f)"><g clip-path="url(#19eeefdeb0)"><path fill="#a41111" d="M 465.125 282.964844 L 557.148438 282.964844 L 557.148438 380.738281 L 465.125 380.738281 Z M 465.125 282.964844 " fill-opacity="1" fill-rule="nonzero"/></g></g><g clip-path="url(#7d769dd6be)"><g clip-path="url(#f1ed5c51b7)"><path fill="#a41111" d="M 519.613281 271.894531 L 576.890625 271.894531 L 576.890625 332.75 L 519.613281 332.75 Z M 519.613281 271.894531 " fill-opacity="1" fill-rule="nonzero"/></g></g><g clip-path="url(#88d50b54fb)"><g clip-path="url(#0149df50aa)"><path fill="#a41111" d="M 585.886719 347.480469 L 627.207031 347.480469 L 627.207031 392.027344 L 585.886719 392.027344 Z M 585.886719 347.480469 " fill-opacity="1" fill-rule="nonzero"/></g></g><g clip-path="url(#f2369957a4)"><g clip-path="url(#dfeb81847d)"><path fill="#a41111" d="M 610 369.734375 L 651.320312 369.734375 L 651.320312 414.28125 L 610 414.28125 Z M 610 369.734375 " fill-opacity="1" fill-rule="nonzero"/></g></g><g clip-path="url(#96510cb425)"><g clip-path="url(#02785c7170)"><path fill="#a41111" d="M 630.660156 369.734375 L 671.980469 369.734375 L 671.980469 414.28125 L 630.660156 414.28125 Z M 630.660156 369.734375 " fill-opacity="1" fill-rule="nonzero"/></g></g><g clip-path="url(#c3af161a23)"><g clip-path="url(#14cff7f4ff)"><path fill="#a41111" d="M 651.320312 347.480469 L 692.640625 347.480469 L 692.640625 392.027344 L 651.320312 392.027344 Z M 651.320312 347.480469 " fill-opacity="1" fill-rule="nonzero"/></g></g><g clip-path="url(#aefbbf8a0a)"><g clip-path="url(#137f8ab1f5)"><path fill="#a41111" d="M 15.773438 347.480469 L 57.09375 347.480469 L 57.09375 392.027344 L 15.773438 392.027344 Z M 15.773438 347.480469 " fill-opacity="1" fill-rule="nonzero"/></g></g><g clip-path="url(#2ecdc86b96)"><g clip-path="url(#d2558d460e)"><path fill="#a41111" d="M 49.804688 358.554688 L 91.125 358.554688 L 91.125 403.101562 L 49.804688 403.101562 Z M 49.804688 358.554688 " fill-opacity="1" fill-rule="nonzero"/></g></g><g clip-path="url(#568dbe346f)"><g clip-path="url(#69a211a7c5)"><path fill="#a41111" d="M 79.003906 347.480469 L 120.324219 347.480469 L 120.324219 392.027344 L 79.003906 392.027344 Z M 79.003906 347.480469 " fill-opacity="1" fill-rule="nonzero"/></g></g><g clip-path="url(#177975fa36)"><g clip-path="url(#d0f23ba71b)"><g clip-path="url(#bef8895aa8)"><path fill="#f9e7d5" d="M 200.835938 327.832031 C 202.582031 329.136719 204.875 328.804688 206.179688 327.054688 C 206.179688 327.054688 219.792969 310.652344 251.109375 306.113281 C 282.425781 301.570312 300.132812 313.429688 300.132812 313.429688 C 301.007812 314.085938 301.828125 314.355469 302.972656 314.191406 C 304.121094 314.023438 304.828125 313.53125 305.480469 312.65625 C 306.789062 310.90625 306.453125 308.617188 304.707031 307.308594 C 303.832031 306.65625 284.753906 293.433594 250 298.472656 C 215.246094 303.515625 200.710938 321.609375 200.058594 322.484375 C 198.753906 324.234375 199.085938 326.523438 200.835938 327.832031 Z M 200.835938 327.832031 " fill-opacity="1" fill-rule="nonzero"/></g></g></g><g clip-path="url(#20e58e75df)"><g clip-path="url(#2d1f83b8f2)"><g clip-path="url(#e0a3fefbdf)"><path fill="#f9e7d5" d="M 515.761719 329.085938 C 513.996094 330.367188 511.707031 330.007812 510.421875 328.242188 C 510.421875 328.242188 497.011719 311.679688 465.753906 306.757812 C 434.492188 301.835938 416.640625 313.484375 416.640625 313.484375 C 415.757812 314.125 414.9375 314.386719 413.792969 314.207031 C 412.648438 314.027344 411.945312 313.523438 411.304688 312.644531 C 410.019531 310.878906 410.378906 308.589844 412.144531 307.304688 C 413.027344 306.664062 432.261719 293.671875 466.953125 299.132812 C 501.644531 304.59375 515.957031 322.863281 516.601562 323.746094 C 517.886719 325.511719 517.523438 327.800781 515.761719 329.085938 Z M 515.761719 329.085938 " fill-opacity="1" fill-rule="nonzero"/></g></g></g><g clip-path="url(#843022a35e)"><path fill="#f9e7d5" d="M 45.597656 374.542969 C 46.324219 375.269531 47.414062 375.269531 48.136719 374.542969 C 48.136719 374.542969 55.582031 367.828125 70.464844 367.828125 C 85.347656 367.828125 92.789062 374.542969 92.789062 374.542969 C 93.152344 374.90625 93.515625 375.085938 94.058594 375.085938 C 94.605469 375.085938 94.96875 374.90625 95.332031 374.542969 C 96.054688 373.816406 96.054688 372.726562 95.332031 372 C 94.96875 371.636719 86.980469 364.195312 70.464844 364.195312 C 53.945312 364.195312 45.960938 371.636719 45.597656 372 C 44.871094 372.726562 44.871094 373.816406 45.597656 374.542969 Z M 45.597656 374.542969 " fill-opacity="1" fill-rule="nonzero"/></g><g clip-path="url(#e0aec8e5be)"><path fill="#f9e7d5" d="M 661.070312 374.542969 C 660.34375 375.269531 659.253906 375.269531 658.53125 374.542969 C 658.53125 374.542969 651.089844 367.828125 636.203125 367.828125 C 621.320312 367.828125 613.878906 374.542969 613.878906 374.542969 C 613.515625 374.90625 613.152344 375.085938 612.609375 375.085938 C 612.0625 375.085938 611.703125 374.90625 611.339844 374.542969 C 610.613281 373.816406 610.613281 372.726562 611.339844 372 C 611.703125 371.636719 619.6875 364.195312 636.203125 364.195312 C 652.722656 364.195312 660.707031 371.636719 661.070312 372 C 661.796875 372.726562 661.796875 373.816406 661.070312 374.542969 Z M 661.070312 374.542969 " fill-opacity="1" fill-rule="nonzero"/></g></svg>